# xmcd
#
# Track frame offsets:
#	150
#	18195
#	34560
#	46170
#	61237
#	75105
#	93695
#	106837
#	122297
#	142752
#	162607
#	175255
#	196455
#	214152
#	227255
#	245287
#	264127
#	281122
#
# Disc length: 3918 seconds
#
# Revision: 0
# Processed by: cddbd v1.4PL0 Copyright (c) Steve Scherf et al.
# Submitted via: dBpowerAMP V4.0
#
DISCID=db0f4c12
DTITLE=Various Artist - Nashville Tennesse 1990
DYEAR=1900
DGENRE=Country
TTITLE0=Do It For Love
TTITLE1=On Second Thought
TTITLE2=Not Counting You
TTITLE3=This Heart
TTITLE4=Statue of A Fool
TTITLE5=Never Had It So Good
TTITLE6=Beyond The Blue Neon
TTITLE7=Little Girl
TTITLE8=Start All Over Again
TTITLE9=Fast Movin Train
TTITLE10=Killin Time
TTITLE11=Hold Me
TTITLE12=Sin City
TTITLE13=There Is A Tear In My Beer
TTITLE14=It is Just A Matter Of Time
TTITLE15=Lonely Town
TTITLE16=Were Have You Been
TTITLE17=Dumas Walker
EXTD=Nashville Tennessee 1990
EXTT0=
EXTT1=
EXTT2=
EXTT3=
EXTT4=
EXTT5=
EXTT6=
EXTT7=
EXTT8=
EXTT9=
EXTT10=
EXTT11=
EXTT12=
EXTT13=
EXTT14=
EXTT15=
EXTT16=
EXTT17=
PLAYORDER=
